<svg width="75" height="75" viewBox="0 0 75 75" fill="none" xmlns="http://www.w3.org/2000/svg">
<path d="M37.5 0C56.798 0 72.7167 14.361 75 32.9032H56.6974C54.6135 24.298 46.8091 17.9032 37.5 17.9032C28.1909 17.9032 20.3865 24.298 18.3026 32.9032H0C2.28333 14.361 18.202 0 37.5 0Z" fill="#17171B"/>
<path d="M56.6974 42.0967H75C72.7167 60.6389 56.798 74.9999 37.5 74.9999C18.202 74.9999 2.28333 60.6389 0 42.0967H18.3026C20.3865 50.7019 28.1909 57.0967 37.5 57.0967C46.8091 57.0967 54.6135 50.7019 56.6974 42.0967Z" fill="url(#paint0_linear_40_2)"/>
<path d="M37.4996 49.8385C44.3651 49.8385 49.9308 44.3143 49.9308 37.4998C49.9308 30.6853 44.3651 25.1611 37.4996 25.1611C30.6341 25.1611 25.0684 30.6853 25.0684 37.4998C25.0684 44.3143 30.6341 49.8385 37.4996 49.8385Z" fill="#17171B"/>
<defs>
<linearGradient id="paint0_linear_40_2" x1="37.5" y1="42.0967" x2="37.5" y2="66" gradientUnits="userSpaceOnUse">
<stop offset="0.17881" stop-color="#17171B"/>
<stop offset="1" stop-color="#17171B" stop-opacity="0"/>
</linearGradient>
</defs>
</svg>
